<svg width="462" height="448" viewBox="0 0 462 448" fill="none" xmlns="http://www.w3.org/2000/svg">
<g clip-path="url(#clip0_9_162)">
<path d="M382.439 0H157.41V225.147H382.439V0Z" fill="#F4F4F4"/>
<path d="M385.018 0H382.439V225.147H385.018V0Z" fill="#F4F4F4"/>
<path opacity="0.05" d="M385.018 0H382.439V225.147H385.018V0Z" fill="#292A2E"/>
<path opacity="0.05" d="M327.925 155.145V96.2389H279.698V130.462H204.993V191.059H173.242V225.147H204.993H211.109H371.615V155.145H327.925Z" fill="#292A2E"/>
<path opacity="0.34" d="M321.008 102.635H285.888V109.031H321.008V102.635Z" fill="#FFFFFA"/>
<path opacity="0.34" d="M321.008 115.889H285.888V122.284H321.008V115.889Z" fill="#FFFFFA"/>
<path opacity="0.34" d="M321.008 129.142H285.888V135.538H321.008V129.142Z" fill="#FFFFFA"/>
<path opacity="0.34" d="M365.387 161.353H358.914V167.749H365.387V161.353Z" fill="#FFFFFA"/>
<path opacity="0.34" d="M365.387 174.607H358.914V181.003H365.387V174.607Z" fill="#FFFFFA"/>
<path opacity="0.34" d="M365.387 187.86H358.914V194.256H365.387V187.86Z" fill="#FFFFFA"/>
<path opacity="0.34" d="M353.412 161.353H346.938V167.749H353.412V161.353Z" fill="#FFFFFA"/>
<path opacity="0.34" d="M353.412 174.607H346.938V181.003H353.412V174.607Z" fill="#FFFFFA"/>
<path opacity="0.34" d="M353.412 187.86H346.938V194.256H353.412V187.86Z" fill="#FFFFFA"/>
<path opacity="0.34" d="M341.76 161.353H335.287V167.749H341.76V161.353Z" fill="#FFFFFA"/>
<path opacity="0.34" d="M341.76 174.607H335.287V181.003H341.76V174.607Z" fill="#FFFFFA"/>
<path opacity="0.34" d="M341.76 187.86H335.287V194.256H341.76V187.86Z" fill="#FFFFFA"/>
<path d="M382.439 111.311H337.16V0H333.415V111.311H211.109V0H207.365V111.311H157.41V115.057H207.365V225.147H211.109V115.057H333.415V225.147H337.16V115.057H382.439V111.311Z" fill="white"/>
<path d="M391.404 224.876H148.445V232.363H391.404V224.876Z" fill="#F4F4F4"/>
<path opacity="0.1" d="M391.404 224.876H148.445V232.363H391.404V224.876Z" fill="#292A2E"/>
<path opacity="0.1" d="M394.911 224.876H391.404V232.363H394.911V224.876Z" fill="#292A2E"/>
<path opacity="0.1" d="M394.911 224.876H391.404V232.363H394.911V224.876Z" fill="#292A2E"/>
<path d="M385.019 4.01904H157.41V9.58621H385.019V4.01904Z" fill="white"/>
<path d="M385.019 14.4173H157.41V19.9844H385.019V14.4173Z" fill="white"/>
<path d="M385.019 24.815H157.41V30.3821H385.019V24.815Z" fill="white"/>
<path d="M385.019 35.2132H157.41V40.7804H385.019V35.2132Z" fill="white"/>
<path d="M385.019 45.6114H157.41V51.1786H385.019V45.6114Z" fill="white"/>
<path d="M360.843 0H357.433V57.4569H360.843V0Z" fill="white"/>
<path d="M359.427 65.7086C362.015 65.7086 364.113 63.6095 364.113 61.02C364.113 58.4306 362.015 56.3314 359.427 56.3314C356.839 56.3314 354.741 58.4306 354.741 61.02C354.741 63.6095 356.839 65.7086 359.427 65.7086Z" fill="white"/>
<path d="M447.428 448H0.363711C0.315948 448 0.268653 447.991 0.224525 447.972C0.180398 447.954 0.140302 447.927 0.106529 447.893C0.0727549 447.86 0.0459641 447.82 0.0276859 447.775C0.00940768 447.731 0 447.684 0 447.636C0 447.588 0.00940768 447.541 0.0276859 447.497C0.0459641 447.453 0.0727549 447.413 0.106529 447.379C0.140302 447.345 0.180398 447.318 0.224525 447.3C0.268653 447.282 0.315948 447.272 0.363711 447.272H447.427C447.524 447.272 447.616 447.311 447.684 447.379C447.753 447.447 447.791 447.54 447.791 447.636C447.791 447.733 447.753 447.825 447.684 447.893C447.616 447.962 447.524 448 447.427 448H447.428Z" fill="#292A2E"/>
<g opacity="0.65">
<path d="M447.428 448H0.363711C0.315948 448 0.268653 447.991 0.224525 447.972C0.180398 447.954 0.140302 447.927 0.106529 447.893C0.0727549 447.86 0.0459641 447.82 0.0276859 447.775C0.00940768 447.731 0 447.684 0 447.636C0 447.588 0.00940768 447.541 0.0276859 447.497C0.0459641 447.453 0.0727549 447.413 0.106529 447.379C0.140302 447.345 0.180398 447.318 0.224525 447.3C0.268653 447.282 0.315948 447.272 0.363711 447.272H447.427C447.524 447.272 447.616 447.311 447.684 447.379C447.753 447.447 447.791 447.54 447.791 447.636C447.791 447.733 447.753 447.825 447.684 447.893C447.616 447.962 447.524 448 447.427 448H447.428Z" fill="#292A2E"/>
</g>
<path d="M31.4886 447.36L30.4681 447.164L46.4174 288.59L47.4378 288.786L31.4886 447.36Z" fill="#494949"/>
<path d="M90.8764 447.36L89.8559 447.164L105.805 288.59L106.825 288.786L90.8764 447.36Z" fill="#494949"/>
<path d="M222.149 447.36L223.17 447.164L207.221 288.59L206.2 288.786L222.149 447.36Z" fill="#494949"/>
<path d="M162.762 447.36L163.782 447.164L147.833 288.59L146.813 288.786L162.762 447.36Z" fill="#494949"/>
<path d="M141.61 218.802L140.58 218.939L149.897 288.759L150.927 288.621L141.61 218.802Z" fill="#494949"/>
<path d="M34.6662 218.801L33.6362 218.938L42.9534 288.758L43.9834 288.62L34.6662 218.801Z" fill="#494949"/>
<path d="M150.838 283.575H46.235C43.4127 283.575 41.1248 285.864 41.1248 288.688V288.689C41.1248 291.512 43.4127 293.801 46.235 293.801H150.838C153.661 293.801 155.948 291.512 155.948 288.689V288.688C155.948 285.864 153.661 283.575 150.838 283.575Z" fill="#292A2E"/>
<path opacity="0.8" d="M150.838 283.575H46.235C43.4127 283.575 41.1248 285.864 41.1248 288.688V288.689C41.1248 291.512 43.4127 293.801 46.235 293.801H150.838C153.661 293.801 155.948 291.512 155.948 288.689V288.688C155.948 285.864 153.661 283.575 150.838 283.575Z" fill="white"/>
<path d="M150.836 294.321H46.235C44.7512 294.307 43.333 293.707 42.2888 292.652C41.2446 291.598 40.6588 290.173 40.6588 288.688C40.6588 287.204 41.2446 285.779 42.2888 284.724C43.333 283.669 44.7512 283.07 46.235 283.055H150.836C152.32 283.07 153.738 283.669 154.782 284.724C155.827 285.779 156.412 287.204 156.412 288.688C156.412 290.173 155.827 291.598 154.782 292.652C153.738 293.707 152.32 294.307 150.836 294.321V294.321ZM46.235 284.095C45.0259 284.108 43.8707 284.598 43.0202 285.458C42.1698 286.318 41.6927 287.479 41.6927 288.688C41.6927 289.898 42.1698 291.059 43.0202 291.919C43.8707 292.779 45.0259 293.269 46.235 293.282H150.836C152.045 293.269 153.201 292.779 154.051 291.919C154.901 291.059 155.378 289.898 155.378 288.688C155.378 287.479 154.901 286.318 154.051 285.458C153.201 284.598 152.045 284.108 150.836 284.095H46.235Z" fill="#292A2E"/>
<path d="M208.25 283.575H103.647C100.825 283.575 98.5367 285.864 98.5367 288.688V288.689C98.5367 291.512 100.825 293.801 103.647 293.801H208.25C211.072 293.801 213.36 291.512 213.36 288.689V288.688C213.36 285.864 211.072 283.575 208.25 283.575Z" fill="white"/>
<path d="M208.251 294.321H103.647C102.903 294.329 102.165 294.188 101.476 293.908C100.787 293.628 100.16 293.215 99.6312 292.691C99.1027 292.167 98.6831 291.544 98.3968 290.857C98.1104 290.17 97.963 289.433 97.963 288.688C97.963 287.944 98.1104 287.207 98.3968 286.52C98.6831 285.833 99.1027 285.21 99.6312 284.686C100.16 284.162 100.787 283.749 101.476 283.469C102.165 283.189 102.903 283.048 103.647 283.055H208.251C208.995 283.048 209.733 283.189 210.422 283.469C211.111 283.749 211.738 284.162 212.267 284.686C212.795 285.21 213.215 285.833 213.501 286.52C213.788 287.207 213.935 287.944 213.935 288.688C213.935 289.433 213.788 290.17 213.501 290.857C213.215 291.544 212.795 292.167 212.267 292.691C211.738 293.215 211.111 293.628 210.422 293.908C209.733 294.188 208.995 294.329 208.251 294.321V294.321ZM103.647 284.095C103.04 284.089 102.438 284.203 101.875 284.431C101.313 284.659 100.801 284.996 100.369 285.423C99.9379 285.85 99.5954 286.359 99.3616 286.919C99.1278 287.48 99.0074 288.081 99.0074 288.688C99.0074 289.296 99.1278 289.897 99.3616 290.458C99.5954 291.018 99.9379 291.527 100.369 291.954C100.801 292.381 101.313 292.718 101.875 292.946C102.438 293.174 103.04 293.288 103.647 293.282H208.251C208.858 293.288 209.46 293.174 210.023 292.946C210.585 292.718 211.097 292.381 211.529 291.954C211.96 291.527 212.303 291.018 212.536 290.458C212.77 289.897 212.891 289.296 212.891 288.688C212.891 288.081 212.77 287.48 212.536 286.919C212.303 286.359 211.96 285.85 211.529 285.423C211.097 284.996 210.585 284.659 210.023 284.431C209.46 284.203 208.858 284.089 208.251 284.095H103.647Z" fill="#292A2E"/>
<path d="M135.88 218.869H34.432C32.7735 218.869 31.1716 218.265 29.9254 217.17C28.6792 216.075 27.8739 214.564 27.6597 212.918L20.9493 161.359C20.8238 160.395 20.9052 159.415 21.1882 158.486C21.4711 157.556 21.9491 156.697 22.5901 155.967C23.2311 155.237 24.0204 154.651 24.9054 154.251C25.7904 153.85 26.7507 153.643 27.7221 153.643H129.169C130.828 153.643 132.43 154.247 133.676 155.342C134.922 156.437 135.728 157.948 135.942 159.594L142.652 211.153C142.778 212.117 142.696 213.096 142.413 214.026C142.13 214.956 141.652 215.814 141.011 216.545C140.37 217.275 139.581 217.86 138.696 218.261C137.811 218.662 136.851 218.869 135.88 218.869Z" fill="#292A2E"/>
<path opacity="0.8" d="M135.88 218.869H34.432C32.7735 218.869 31.1716 218.265 29.9254 217.17C28.6792 216.075 27.8739 214.564 27.6597 212.918L20.9493 161.359C20.8238 160.395 20.9052 159.415 21.1882 158.486C21.4711 157.556 21.9491 156.697 22.5901 155.967C23.2311 155.237 24.0204 154.651 24.9054 154.251C25.7904 153.85 26.7507 153.643 27.7221 153.643H129.169C130.828 153.643 132.43 154.247 133.676 155.342C134.922 156.437 135.728 157.948 135.942 159.594L142.652 211.153C142.778 212.117 142.696 213.096 142.413 214.026C142.13 214.956 141.652 215.814 141.011 216.545C140.37 217.275 139.581 217.86 138.696 218.261C137.811 218.662 136.851 218.869 135.88 218.869Z" fill="white"/>
<path d="M135.88 219.389H34.432C32.6485 219.385 30.927 218.734 29.5869 217.556C28.2467 216.379 27.3788 214.755 27.1443 212.986L20.4338 161.427C20.2988 160.39 20.3864 159.336 20.6909 158.335C20.9954 157.335 21.5096 156.411 22.1994 155.625C22.8891 154.839 23.7385 154.21 24.6908 153.778C25.643 153.347 26.6763 153.124 27.7216 153.124H129.169C130.953 153.128 132.675 153.779 134.015 154.957C135.356 156.135 136.223 157.759 136.458 159.528L143.168 211.087C143.303 212.124 143.215 213.178 142.911 214.179C142.606 215.179 142.092 216.103 141.402 216.889C140.712 217.675 139.863 218.304 138.911 218.735C137.958 219.167 136.925 219.39 135.88 219.39V219.389ZM27.7216 154.163C26.8241 154.163 25.937 154.354 25.1194 154.725C24.3018 155.095 23.5726 155.635 22.9804 156.31C22.3882 156.985 21.9467 157.778 21.6853 158.637C21.424 159.496 21.3487 160.401 21.4647 161.291L28.1746 212.851C28.376 214.37 29.1211 215.764 30.2718 216.775C31.4225 217.786 32.9006 218.346 34.432 218.349H135.88C136.778 218.349 137.665 218.158 138.483 217.787C139.3 217.417 140.03 216.876 140.622 216.201C141.214 215.526 141.656 214.733 141.917 213.874C142.178 213.014 142.253 212.109 142.137 211.219L135.427 159.66C135.225 158.141 134.48 156.747 133.33 155.736C132.179 154.725 130.701 154.166 129.169 154.163H27.7216Z" fill="#292A2E"/>
<path d="M141.617 218.869H40.1688C38.5102 218.869 36.9082 218.265 35.6619 217.17C34.4157 216.075 33.6102 214.564 33.396 212.918L26.6855 161.359C26.5602 160.395 26.6418 159.415 26.9248 158.486C27.2078 157.556 27.6857 156.697 28.3267 155.967C28.9677 155.237 29.757 154.652 30.6419 154.251C31.5268 153.85 32.487 153.643 33.4583 153.643H134.906C136.565 153.643 138.167 154.247 139.413 155.342C140.659 156.437 141.465 157.948 141.679 159.594L148.39 211.153C148.515 212.117 148.433 213.096 148.15 214.026C147.867 214.956 147.389 215.814 146.748 216.545C146.107 217.275 145.318 217.86 144.433 218.261C143.548 218.662 142.588 218.869 141.617 218.869V218.869Z" fill="white"/>
<path d="M141.617 219.389H40.1688C38.3853 219.385 36.6637 218.734 35.3235 217.556C33.9833 216.379 33.1155 214.755 32.8811 212.986L26.1706 161.427C26.0356 160.39 26.1232 159.336 26.4277 158.335C26.7321 157.335 27.2464 156.411 27.9362 155.625C28.6259 154.839 29.4753 154.21 30.4275 153.778C31.3798 153.347 32.413 153.124 33.4583 153.124H134.906C136.69 153.128 138.412 153.779 139.752 154.957C141.092 156.135 141.96 157.759 142.194 159.528L148.904 211.087C149.039 212.124 148.952 213.178 148.647 214.179C148.343 215.179 147.829 216.103 147.139 216.889C146.449 217.675 145.6 218.304 144.647 218.736C143.695 219.167 142.662 219.39 141.617 219.39V219.389ZM33.4583 154.163C32.5608 154.163 31.6737 154.354 30.8561 154.725C30.0385 155.095 29.3092 155.635 28.717 156.31C28.1248 156.985 27.6832 157.778 27.4218 158.637C27.1604 159.496 27.0851 160.401 27.2009 161.291L33.9114 212.851C34.1125 214.37 34.8576 215.765 36.0083 216.776C37.1591 217.787 38.6373 218.346 40.1688 218.349H141.617C142.514 218.349 143.402 218.158 144.22 217.787C145.037 217.417 145.767 216.876 146.359 216.201C146.951 215.526 147.393 214.733 147.654 213.874C147.916 213.014 147.991 212.109 147.875 211.219L141.164 159.66C140.963 158.141 140.218 156.746 139.067 155.735C137.917 154.724 136.438 154.165 134.907 154.161L33.4583 154.163Z" fill="#292A2E"/>
<path d="M284.693 420.839C284.693 420.839 287.479 435.288 301 436.093C314.52 436.897 311.589 447.675 311.589 447.675H259.919V421.846L284.693 420.839Z" fill="#367CFF"/>
<path d="M186.393 411.716C186.393 411.716 182.519 425.912 194.296 432.606C206.074 439.3 198.688 447.675 198.688 447.675L152.324 424.853L163.719 401.677L186.393 411.716Z" fill="#367CFF"/>
<path d="M144.788 75.0417C144.788 75.0417 151.529 69.9507 153.199 58.232C154.493 49.1584 146.127 55.0364 146.127 55.0364C146.127 55.0364 146.995 48.4945 142.23 49.1433C137.466 49.7921 134.8 56.6657 134.8 56.6657" fill="#0C0C0C"/>
<path d="M117.608 49.9091C117.608 49.9091 93.969 52.4449 102.514 84.4932L104.606 84.633L108.852 84.9179" fill="#0C0C0C"/>
<path d="M140.828 117.963C140.725 117.949 139.571 137.094 117.34 135.426C101.95 134.273 96.4625 117.936 96.1097 117.936C97.7692 117.583 99.8195 117.047 100.635 116.863C102.411 116.451 104.019 115.507 105.246 114.157C106.473 112.808 107.26 111.117 107.503 109.309C107.953 106.595 107.191 92.7106 107.424 89.9647L131.048 95.2408C130.718 101.04 128.408 114.484 136.504 116.863C137.853 117.257 139.305 117.619 140.828 117.963Z" fill="#E98862"/>
<path opacity="0.52" d="M131.38 111.369C131.01 110.176 130.772 108.946 130.67 107.701C130.41 104.859 130.462 101.998 130.825 99.1683C126.024 98.5199 121.5 96.5369 117.769 93.4447C117.33 95.0656 114.918 102.148 115.586 103.689C116.846 106.601 122.779 111.369 131.38 111.369Z" fill="#0C0C0C"/>
<path d="M126.504 107.58C117.184 106.743 106.029 100.852 105.869 88.1936L105.723 76.7728C105.563 64.1147 112.077 53.769 123.989 53.6177C135.9 53.4659 144.934 63.6141 145.095 76.2716L145.159 81.3278C145.151 83.0643 145.024 84.7982 144.78 86.5175C144.169 91.0663 143.222 97.982 140.137 102.661C137.223 107.077 132.458 108.114 126.504 107.58Z" fill="#E98862"/>
<path d="M130.829 96.0097C132.752 96.0969 134.669 95.7306 136.424 94.9403C136.461 94.9248 136.494 94.9023 136.521 94.8741C136.549 94.8459 136.571 94.8125 136.585 94.7759C136.6 94.7392 136.607 94.7 136.607 94.6605C136.607 94.6211 136.598 94.582 136.583 94.5457C136.567 94.5094 136.545 94.4765 136.517 94.4489C136.489 94.4212 136.455 94.3995 136.419 94.3847C136.382 94.37 136.343 94.3626 136.303 94.3631C136.264 94.3635 136.225 94.3717 136.189 94.3872C132.406 96.0013 128.971 95.7648 126.256 93.7036C126.201 93.6602 126.144 93.6198 126.085 93.5824C126.016 93.5508 125.939 93.5459 125.867 93.5687C125.795 93.5914 125.735 93.6403 125.697 93.7055C125.66 93.7707 125.648 93.8477 125.665 93.9211C125.681 93.9945 125.724 94.0592 125.786 94.1023C125.808 94.1158 125.843 94.1434 125.89 94.1813C127.317 95.2692 129.037 95.9058 130.829 96.0097Z" fill="#0C0C0C"/>
<path d="M130.739 98.8611C131.086 98.8828 131.435 98.8744 131.781 98.8361C131.86 98.8277 131.933 98.7882 131.983 98.7262C132.033 98.6642 132.056 98.5848 132.048 98.5055C132.04 98.4262 132 98.3535 131.938 98.3034C131.876 98.2533 131.797 98.2299 131.718 98.2383C129.636 98.4598 128.642 97.5053 128.6 97.4642C128.543 97.4104 128.467 97.3809 128.389 97.3819C128.311 97.383 128.236 97.4146 128.181 97.4699C128.125 97.5253 128.094 97.6001 128.092 97.6784C128.091 97.7568 128.121 97.8325 128.174 97.8895C128.892 98.4997 129.797 98.843 130.739 98.8611V98.8611Z" fill="#0C0C0C"/>
<path d="M141.161 83.7618C141.971 83.7618 142.628 83.1045 142.628 82.2937C142.628 81.4829 141.971 80.8256 141.161 80.8256C140.351 80.8256 139.694 81.4829 139.694 82.2937C139.694 83.1045 140.351 83.7618 141.161 83.7618Z" fill="#0C0C0C"/>
<path d="M126.827 82.8619C127.637 82.8619 128.294 82.2046 128.294 81.3938C128.294 80.583 127.637 79.9257 126.827 79.9257C126.016 79.9257 125.359 80.583 125.359 81.3938C125.359 82.2046 126.016 82.8619 126.827 82.8619Z" fill="#0C0C0C"/>
<path d="M106.657 92.0405C103.037 92.0868 100.054 88.2492 100.007 84.6273C99.9593 81.0055 102.87 78.9713 106.489 78.925L108.385 81.3278L109.769 92.001L106.657 92.0405Z" fill="#E98862"/>
<path d="M110.256 86.2207C110.256 86.2207 111.479 68.31 116.907 67.2043C120.522 66.4676 129.289 71.5981 137.41 70.0484C140.963 69.3726 144.335 70.2506 144.678 71.9293C144.814 72.5942 147.027 63.0397 141.464 55.7908C137.034 50.0203 122.539 48.388 115.944 50.2803C97.6845 55.5215 105.742 79.7136 105.742 79.7136L106.556 85.888L110.256 86.2207Z" fill="#0C0C0C"/>
<path d="M133.014 91.7827C133.022 91.7832 133.03 91.7832 133.038 91.7827C134.204 91.7707 136.159 91.621 136.152 90.7477C136.144 90.024 134.086 82.235 133.851 81.3491C133.825 81.2801 133.774 81.2232 133.709 81.1894C133.643 81.1556 133.567 81.1475 133.496 81.1665C133.425 81.1854 133.363 81.2302 133.323 81.2921C133.283 81.354 133.268 81.4286 133.279 81.5014C134.193 84.9512 135.555 90.2621 135.56 90.7549C135.448 90.9629 134.243 91.1765 133.035 91.189C132.958 91.1906 132.886 91.2215 132.832 91.2752C132.778 91.3288 132.746 91.4013 132.744 91.4775C132.742 91.5537 132.769 91.6278 132.82 91.6846C132.87 91.7414 132.941 91.7765 133.017 91.7827H133.014Z" fill="#0C0C0C"/>
<path d="M136.997 74.3336C138.222 73.996 139.517 73.996 140.743 74.3336C141.345 74.4956 141.92 74.7472 142.447 75.0801C142.968 75.4061 143.447 75.7966 143.87 76.2426C143.951 76.3212 143.998 76.4286 144.002 76.5416C144.005 76.6546 143.963 76.7643 143.886 76.8473C143.81 76.9302 143.703 76.9797 143.59 76.9852C143.478 76.9907 143.367 76.9518 143.283 76.8768L143.256 76.8539C142.864 76.4907 142.427 76.1782 141.957 75.9239C141.496 75.671 140.999 75.4896 140.483 75.3858C139.468 75.1723 138.414 75.2311 137.429 75.5563L137.388 75.5709C137.225 75.6284 137.047 75.6189 136.891 75.5446C136.735 75.4702 136.616 75.3371 136.558 75.1745C136.501 75.0119 136.51 74.8331 136.585 74.6774C136.659 74.5218 136.792 74.402 136.954 74.3445L136.997 74.3336Z" fill="#0C0C0C"/>
<path d="M128.315 75.0703C127.382 74.6167 126.346 74.4178 125.312 74.4937C124.787 74.5279 124.27 74.6415 123.779 74.8306C123.28 75.0202 122.807 75.2717 122.37 75.5792L122.342 75.5979C122.248 75.658 122.135 75.6797 122.026 75.6584C121.917 75.6371 121.82 75.5746 121.755 75.4837C121.691 75.3928 121.664 75.2806 121.68 75.1704C121.696 75.0602 121.754 74.9605 121.842 74.892C122.322 74.5066 122.848 74.1831 123.408 73.9292C123.975 73.67 124.578 73.4972 125.196 73.4166C125.815 73.3295 126.444 73.328 127.064 73.4119C127.7 73.491 128.321 73.6603 128.91 73.9146C129.068 73.9836 129.193 74.1127 129.256 74.2735C129.319 74.4344 129.316 74.6138 129.247 74.7724C129.179 74.9309 129.049 75.0556 128.889 75.119C128.728 75.1824 128.549 75.1792 128.39 75.1103C128.378 75.1051 128.366 75.0994 128.354 75.0931L128.315 75.0703Z" fill="#0C0C0C"/>
<path d="M135.252 62.0036C137.932 61.4435 139.436 57.7907 138.612 53.8449C137.788 49.899 134.948 47.1544 132.268 47.7145C129.589 48.2746 128.085 51.9274 128.909 55.8732C129.733 59.819 132.573 62.5637 135.252 62.0036Z" fill="#0C0C0C"/>
<path d="M157.677 407.707L196.776 284.297H125.904C111.667 284.297 105.732 272.218 105.732 257.975C105.732 243.732 119.728 231.246 133.964 231.246H229.615C238.297 231.246 248.033 236.559 252.799 243.822C257.565 251.084 256.276 262.338 252.823 270.309L190.213 422.455" fill="#262626"/>
<path opacity="0.8" d="M157.677 407.707L196.776 284.297H125.904C111.667 284.297 105.732 272.218 105.732 257.975C105.732 243.732 119.728 231.246 133.964 231.246H229.615C238.297 231.246 248.033 236.559 252.799 243.822C257.565 251.084 256.276 262.338 252.823 270.309L190.213 422.455" fill="#0A0A0A"/>
<path d="M256.947 434.257L191.572 284.297L105.731 284.292C85.6176 282.714 76.4059 271.685 76.6989 257.445C76.9878 243.386 84.103 229.499 98.0919 229.499H213.789C224.14 229.712 232.283 241.155 236.122 250.774L290.471 425.076" fill="#262626"/>
<path d="M70.8442 229.671C70.8442 229.671 67.032 254.544 73.0748 268.373C80.6187 285.637 108.899 284.292 108.899 284.292L107.305 229.499L70.8442 229.671Z" fill="#262626"/>
<path d="M238.582 229.181L177.946 216.61C175.42 216.086 173.066 214.933 171.103 213.258C169.139 211.583 167.63 209.439 166.715 207.025L142.866 144.147C142.14 142.259 141.793 140.247 141.846 138.226C141.9 136.205 142.352 134.214 143.176 132.367C144.001 130.521 145.182 128.856 146.652 127.468C148.121 126.08 149.851 124.996 151.74 124.279C153.63 123.561 155.643 123.224 157.663 123.287C159.683 123.35 161.67 123.812 163.512 124.646C165.353 125.48 167.011 126.67 168.392 128.147C169.772 129.624 170.847 131.359 171.555 133.253L192.417 188.254L244.81 199.116C244.81 199.116 239.634 229.399 238.582 229.181Z" fill="#367CFF"/>
<path d="M168.45 160.117C167.75 168.348 162.787 219.698 162.111 229.836H70.8842C70.3599 220.692 68.0062 180.709 66.0188 162.826C64.1213 145.764 61.4615 137.999 63.6469 132.697C67.5012 123.345 79.7697 119.168 88.0779 118.043C93.1506 117.356 100.781 116.863 100.781 116.863C100.781 116.863 101.427 129.939 116.832 130.667C137.802 131.655 136.402 116.863 136.506 116.863C139.903 116.863 158.395 119.335 163.018 122.35C169.55 126.61 171.479 132.413 171.556 137.746C171.644 143.886 169.244 150.779 168.45 160.117Z" fill="#367CFF"/>
<path d="M164.865 202.073H164.843C164.809 202.07 164.776 202.061 164.746 202.045C164.715 202.029 164.688 202.008 164.666 201.982C164.644 201.956 164.628 201.926 164.617 201.893C164.607 201.86 164.603 201.826 164.606 201.792L166.974 173.328C166.976 173.293 166.985 173.26 167 173.229C167.016 173.198 167.037 173.171 167.063 173.149C167.089 173.127 167.12 173.11 167.153 173.1C167.185 173.09 167.22 173.086 167.254 173.09C167.288 173.093 167.321 173.103 167.352 173.118C167.382 173.134 167.409 173.155 167.431 173.181C167.453 173.207 167.47 173.238 167.48 173.27C167.491 173.303 167.495 173.337 167.492 173.371L165.123 201.835C165.118 201.9 165.088 201.96 165.04 202.004C164.993 202.048 164.93 202.073 164.865 202.073Z" fill="#0C0C0C"/>
<path d="M179.532 224.191L199.548 162.628C199.9 161.546 200.585 160.603 201.505 159.935C202.425 159.266 203.533 158.906 204.67 158.906H286.22C287.07 158.906 287.908 159.107 288.666 159.493C289.423 159.879 290.078 160.44 290.578 161.128C291.077 161.816 291.407 162.613 291.54 163.453C291.673 164.293 291.605 165.153 291.342 165.961L271.325 227.525C270.973 228.606 270.288 229.549 269.368 230.218C268.448 230.886 267.34 231.246 266.203 231.246H184.653C183.803 231.246 182.965 231.045 182.208 230.659C181.45 230.273 180.795 229.713 180.295 229.024C179.796 228.336 179.466 227.539 179.333 226.699C179.201 225.859 179.269 225 179.532 224.191V224.191Z" fill="#292A2E"/>
<path opacity="0.2" d="M179.532 224.191L199.548 162.628C199.9 161.546 200.585 160.603 201.505 159.935C202.425 159.266 203.533 158.906 204.67 158.906H286.22C287.07 158.906 287.908 159.107 288.666 159.493C289.423 159.879 290.078 160.44 290.578 161.128C291.077 161.816 291.407 162.613 291.54 163.453C291.673 164.293 291.605 165.153 291.342 165.961L271.325 227.525C270.973 228.606 270.288 229.549 269.368 230.218C268.448 230.886 267.34 231.246 266.203 231.246H184.653C183.803 231.246 182.965 231.045 182.208 230.659C181.45 230.273 180.795 229.713 180.295 229.024C179.796 228.336 179.466 227.539 179.333 226.699C179.201 225.859 179.269 225 179.532 224.191V224.191Z" fill="white"/>
<path d="M195.86 226.255H141.27C139.91 226.255 138.807 227.358 138.807 228.719V228.782C138.807 230.143 139.91 231.246 141.27 231.246H195.86C197.22 231.246 198.323 230.143 198.323 228.782V228.719C198.323 227.358 197.22 226.255 195.86 226.255Z" fill="#292A2E"/>
<path opacity="0.2" d="M195.86 226.255H141.27C139.91 226.255 138.807 227.358 138.807 228.719V228.782C138.807 230.143 139.91 231.246 141.27 231.246H195.86C197.22 231.246 198.323 230.143 198.323 228.782V228.719C198.323 227.358 197.22 226.255 195.86 226.255Z" fill="white"/>
<path d="M235.437 206.637C240.16 206.637 243.989 202.805 243.989 198.079C243.989 193.353 240.16 189.522 235.437 189.522C230.713 189.522 226.884 193.353 226.884 198.079C226.884 202.805 230.713 206.637 235.437 206.637Z" fill="white"/>
<path d="M169.277 148.641H147.592V175.25H169.277V148.641Z" fill="white"/>
<path d="M147.592 170.83C145.836 170.83 144.119 170.309 142.658 169.332C141.198 168.356 140.06 166.969 139.388 165.345C138.716 163.722 138.54 161.935 138.882 160.212C139.225 158.488 140.071 156.905 141.313 155.662C142.555 154.42 144.137 153.574 145.859 153.231C147.582 152.888 149.368 153.064 150.99 153.736C152.613 154.409 154 155.548 154.976 157.009C155.951 158.47 156.472 160.188 156.472 161.945C156.47 164.301 155.533 166.559 153.868 168.225C152.204 169.89 149.946 170.827 147.592 170.83V170.83ZM147.592 156.7C146.555 156.7 145.541 157.007 144.679 157.584C143.817 158.16 143.145 158.979 142.748 159.938C142.351 160.897 142.247 161.951 142.45 162.969C142.652 163.987 143.151 164.921 143.885 165.655C144.618 166.389 145.552 166.888 146.569 167.091C147.586 167.293 148.641 167.189 149.599 166.792C150.557 166.395 151.376 165.722 151.952 164.86C152.528 163.997 152.835 162.983 152.835 161.945C152.834 160.554 152.281 159.221 151.298 158.237C150.315 157.254 148.982 156.701 147.592 156.7Z" fill="white"/>
<path d="M148.843 165.887C148.645 165.373 148.273 164.945 147.792 164.678C147.31 164.411 146.75 164.322 146.21 164.427C146.22 164.402 146.226 164.375 146.226 164.348L146.953 164.023C147.463 163.806 147.882 163.42 148.14 162.929C148.397 162.439 148.478 161.874 148.367 161.332C148.291 160.993 148.14 160.675 147.926 160.401C147.712 160.127 147.44 159.905 147.13 159.749C146.819 159.593 146.478 159.508 146.131 159.5C145.784 159.492 145.439 159.561 145.122 159.703L143.406 160.471C143.406 160.464 143.406 160.457 143.403 160.45C143.396 160.437 143.387 160.424 143.378 160.412C143.8 160.093 144.103 159.64 144.235 159.128C144.368 158.615 144.323 158.072 144.108 157.589C143.631 156.299 141.943 156.196 140.826 156.694L136.34 158.505L137.694 157.131C138.118 156.683 138.356 156.091 138.361 155.474C138.365 154.856 138.135 154.261 137.718 153.807C137.494 153.58 137.226 153.401 136.931 153.281C136.635 153.162 136.319 153.103 136 153.11C135.682 153.117 135.368 153.188 135.078 153.32C134.788 153.452 134.528 153.642 134.313 153.878L118.362 171.308L123.818 176.565C125.512 178.198 127.655 179.287 129.972 179.694C132.288 180.1 134.674 179.805 136.822 178.846L146.544 174.484C147.054 174.268 147.473 173.881 147.731 173.391C147.989 172.901 148.069 172.336 147.958 171.793C147.848 171.306 147.585 170.866 147.207 170.539C146.83 170.212 146.358 170.014 145.86 169.974C145.866 169.947 145.866 169.919 145.86 169.892C145.855 169.865 145.845 169.839 145.829 169.816C145.814 169.793 145.794 169.774 145.771 169.759C145.748 169.743 145.723 169.733 145.695 169.728L147.491 168.926C148.059 168.685 148.515 168.238 148.766 167.673C149.017 167.109 149.044 166.471 148.843 165.887V165.887Z" fill="#E98862"/>
<path opacity="0.2" d="M140.162 161.945C140.111 161.946 140.061 161.928 140.021 161.895C139.982 161.862 139.955 161.817 139.945 161.766C139.935 161.716 139.944 161.663 139.969 161.618C139.994 161.573 140.033 161.538 140.081 161.52L143.116 160.324C143.143 160.313 143.171 160.308 143.2 160.309C143.229 160.309 143.258 160.315 143.284 160.327C143.311 160.338 143.335 160.355 143.355 160.376C143.375 160.397 143.391 160.421 143.401 160.448C143.412 160.475 143.417 160.504 143.417 160.533C143.416 160.562 143.41 160.59 143.399 160.617C143.387 160.644 143.37 160.668 143.35 160.688C143.329 160.708 143.304 160.724 143.277 160.734L140.243 161.93C140.217 161.94 140.19 161.945 140.162 161.945V161.945Z" fill="#0C0C0C"/>
<path opacity="0.2" d="M141.856 166.238C141.805 166.238 141.755 166.22 141.716 166.188C141.677 166.155 141.65 166.11 141.64 166.06C141.63 166.01 141.638 165.958 141.663 165.913C141.687 165.868 141.726 165.833 141.774 165.814L145.924 164.143C145.978 164.125 146.036 164.127 146.088 164.151C146.14 164.174 146.18 164.217 146.201 164.269C146.223 164.322 146.223 164.381 146.202 164.433C146.18 164.486 146.14 164.529 146.088 164.552L141.938 166.223C141.912 166.233 141.884 166.238 141.856 166.238V166.238Z" fill="#0C0C0C"/>
<path opacity="0.2" d="M143.666 170.9C143.614 170.9 143.564 170.881 143.525 170.848C143.485 170.815 143.458 170.769 143.449 170.718C143.44 170.668 143.449 170.615 143.474 170.57C143.5 170.525 143.54 170.491 143.589 170.473L145.567 169.73C145.622 169.709 145.683 169.711 145.736 169.735C145.789 169.759 145.831 169.804 145.851 169.858C145.872 169.913 145.87 169.974 145.846 170.027C145.822 170.08 145.778 170.122 145.723 170.143L143.744 170.885C143.719 170.895 143.693 170.9 143.666 170.9V170.9Z" fill="#0C0C0C"/>
<path d="M153.457 131.716C153.361 131.716 153.267 131.69 153.185 131.64C153.104 131.59 153.037 131.519 152.994 131.433C151.81 129.126 150.338 126.253 150.505 123.241C150.637 120.846 151.759 118.719 152.843 116.664C153.543 115.422 154.14 114.124 154.628 112.783C155.222 110.934 155.372 108.97 155.065 107.052C154.758 105.134 154.003 103.315 152.861 101.744C152.818 101.689 152.787 101.626 152.769 101.559C152.751 101.492 152.746 101.422 152.756 101.353C152.765 101.284 152.788 101.218 152.823 101.158C152.859 101.099 152.906 101.047 152.962 101.005C153.017 100.964 153.081 100.934 153.149 100.918C153.216 100.902 153.286 100.899 153.355 100.91C153.423 100.922 153.489 100.947 153.547 100.984C153.606 101.021 153.657 101.069 153.697 101.126C154.937 102.831 155.758 104.805 156.092 106.887C156.426 108.97 156.264 111.102 155.619 113.109C155.114 114.505 154.495 115.856 153.766 117.149C152.685 119.197 151.665 121.131 151.545 123.299C151.395 126.029 152.737 128.648 153.922 130.959C153.962 131.038 153.982 131.127 153.978 131.216C153.975 131.305 153.949 131.391 153.903 131.467C153.856 131.543 153.791 131.606 153.714 131.65C153.636 131.693 153.549 131.716 153.46 131.716H153.457Z" fill="white"/>
<path d="M161.8 139.83C161.684 139.83 161.572 139.792 161.481 139.721C161.39 139.651 161.325 139.552 161.297 139.44C161.268 139.329 161.277 139.211 161.322 139.105C161.368 138.999 161.447 138.911 161.548 138.855C163.474 137.793 163.689 134.835 162.785 132.59C162.336 131.558 161.811 130.561 161.214 129.607C160.416 128.371 159.767 127.045 159.281 125.656C158.785 123.963 158.754 122.167 159.191 120.458C159.628 118.749 160.518 117.189 161.766 115.942C161.865 115.848 161.997 115.796 162.134 115.799C162.271 115.801 162.402 115.858 162.497 115.956C162.593 116.055 162.645 116.187 162.644 116.324C162.642 116.461 162.587 116.592 162.49 116.688C161.377 117.8 160.584 119.191 160.194 120.715C159.804 122.239 159.832 123.841 160.274 125.351C160.736 126.661 161.352 127.912 162.108 129.077C162.733 130.075 163.281 131.119 163.748 132.201C164.807 134.83 164.572 138.374 162.049 139.765C161.973 139.808 161.887 139.83 161.8 139.83Z" fill="white"/>
<path d="M136.652 185.145L60.1423 216.825C57.3838 217.955 54.3561 218.257 51.4292 217.693C48.5023 217.129 45.8029 215.724 43.6609 213.651C41.5188 211.577 40.0269 208.924 39.3673 206.015C38.7078 203.107 38.9092 200.07 39.9469 197.274L62.7662 134.915C65.7164 126.967 74.0272 122.397 81.9712 125.349C85.7857 126.767 88.8811 129.643 90.5766 133.344C92.2721 137.045 92.4287 141.268 91.012 145.084L80.6036 174.599L125.444 157.303" fill="#367CFF"/>
<path d="M136.465 185.428C136.424 185.428 136.385 185.415 136.351 185.393C136.317 185.37 136.29 185.338 136.275 185.3L125.143 157.644L80.4524 174.9C80.4154 174.914 80.3751 174.917 80.3362 174.909C80.2974 174.901 80.2619 174.882 80.2339 174.854C80.2059 174.825 80.1867 174.79 80.1786 174.751C80.1705 174.712 80.174 174.672 80.1885 174.635L87.099 156.889C87.1187 156.838 87.1576 156.798 87.2073 156.776C87.2569 156.754 87.3132 156.753 87.3637 156.773C87.4142 156.792 87.4548 156.831 87.4766 156.881C87.4984 156.931 87.4995 156.987 87.4798 157.037L80.7377 174.35L125.184 157.188C125.234 157.169 125.29 157.17 125.339 157.191C125.388 157.213 125.427 157.253 125.447 157.303L136.655 185.147C136.674 185.197 136.673 185.253 136.652 185.303C136.631 185.353 136.591 185.392 136.541 185.413C136.517 185.423 136.491 185.428 136.465 185.428V185.428Z" fill="#0C0C0C"/>
<path d="M66.4168 180.391C66.3689 180.392 66.3224 180.375 66.2854 180.345C66.2484 180.314 66.2233 180.272 66.2144 180.225C66.2055 180.178 66.2134 180.129 66.2367 180.087C66.26 180.045 66.2973 180.013 66.342 179.996L80.3391 174.486C80.3642 174.475 80.3911 174.47 80.4183 174.47C80.4454 174.47 80.4722 174.476 80.4972 174.486C80.5222 174.497 80.5448 174.513 80.5637 174.532C80.5826 174.552 80.5975 174.575 80.6075 174.6C80.6174 174.625 80.6223 174.652 80.6217 174.679C80.6211 174.706 80.6152 174.733 80.6042 174.758C80.5932 174.783 80.5774 174.805 80.5577 174.824C80.5379 174.842 80.5147 174.857 80.4893 174.867L66.4916 180.377C66.4678 180.386 66.4424 180.391 66.4168 180.391V180.391Z" fill="#0C0C0C"/>
<path d="M69.6767 213.126C69.6293 213.126 69.5832 213.11 69.5465 213.08C69.5098 213.05 69.4846 213.008 69.4754 212.962C69.4662 212.915 69.4735 212.867 69.496 212.825C69.5185 212.783 69.5548 212.75 69.5987 212.733L136.389 185.034C136.414 185.024 136.441 185.019 136.467 185.019C136.494 185.019 136.521 185.024 136.545 185.035C136.57 185.045 136.593 185.06 136.612 185.079C136.631 185.098 136.646 185.121 136.656 185.145C136.666 185.17 136.671 185.197 136.671 185.224C136.671 185.251 136.666 185.277 136.656 185.302C136.645 185.327 136.63 185.349 136.611 185.368C136.592 185.387 136.57 185.402 136.545 185.412L69.7546 213.111C69.73 213.121 69.7035 213.126 69.6767 213.126Z" fill="#0C0C0C"/>
<path d="M408.765 379.825C408.627 379.825 408.495 379.77 408.398 379.673C407.666 378.94 406.473 365.502 403.259 325.492C401.943 309.12 400.701 293.656 399.795 284.259C399.73 283.588 399.47 283.509 399.384 283.484C398.143 283.109 394.369 286.087 392.262 288.694C392.175 288.801 392.05 288.87 391.913 288.884C391.776 288.899 391.638 288.858 391.531 288.772C391.424 288.685 391.356 288.559 391.341 288.422C391.327 288.285 391.367 288.148 391.454 288.04C392.847 286.317 397.388 281.797 399.683 282.488C400.146 282.627 400.722 283.029 400.829 284.159C401.736 293.564 402.979 309.032 404.294 325.408C406.247 349.722 408.46 377.267 409.187 379.002C409.243 379.079 409.276 379.171 409.283 379.266C409.291 379.362 409.271 379.457 409.228 379.542C409.184 379.628 409.118 379.699 409.036 379.749C408.955 379.799 408.861 379.825 408.765 379.825V379.825Z" fill="#494949"/>
<path d="M398.46 301.503C407.082 294.588 409.939 283.825 404.842 277.463C399.746 271.102 388.624 271.55 380.002 278.465C371.38 285.38 368.523 296.142 373.62 302.504C378.716 308.866 389.838 308.418 398.46 301.503Z" fill="#0CBC8B"/>
<path opacity="0.2" d="M398.46 301.503C407.082 294.588 409.939 283.825 404.842 277.463C399.746 271.102 388.624 271.55 380.002 278.465C371.38 285.38 368.523 296.142 373.62 302.504C378.716 308.866 389.838 308.418 398.46 301.503Z" fill="white"/>
<path d="M376.036 304.123C375.987 304.123 375.939 304.109 375.897 304.082C375.855 304.056 375.822 304.018 375.801 303.973C375.78 303.928 375.773 303.879 375.779 303.83C375.785 303.781 375.805 303.734 375.837 303.696L400.409 274.049C400.43 274.023 400.457 274 400.487 273.984C400.518 273.967 400.551 273.957 400.585 273.953C400.62 273.95 400.654 273.953 400.687 273.963C400.72 273.973 400.751 273.99 400.777 274.012C400.804 274.034 400.826 274.061 400.842 274.092C400.858 274.122 400.867 274.156 400.87 274.19C400.873 274.225 400.869 274.259 400.859 274.292C400.848 274.325 400.831 274.355 400.808 274.382L376.236 304.029C376.212 304.058 376.182 304.082 376.147 304.098C376.112 304.114 376.075 304.123 376.036 304.123Z" fill="white"/>
<path d="M414.125 373.469C414.042 373.469 413.96 373.45 413.886 373.412C413.813 373.374 413.749 373.318 413.701 373.251C413.653 373.183 413.622 373.105 413.61 373.023C413.598 372.941 413.606 372.857 413.634 372.778L422.864 346.22C423.135 345.44 423.599 344.74 424.211 344.186C424.823 343.631 425.564 343.238 426.367 343.044C427.17 342.851 428.008 342.861 428.806 343.076C429.604 343.29 430.335 343.702 430.932 344.272L435.812 348.936C435.911 349.031 435.969 349.162 435.972 349.3C435.975 349.438 435.924 349.572 435.828 349.671C435.733 349.771 435.602 349.829 435.465 349.832C435.327 349.835 435.193 349.783 435.094 349.688L430.214 345.024C429.743 344.574 429.165 344.25 428.536 344.08C427.906 343.911 427.244 343.903 426.611 344.056C425.977 344.209 425.392 344.518 424.909 344.956C424.425 345.394 424.06 345.946 423.845 346.562L414.615 373.12C414.58 373.222 414.514 373.31 414.426 373.373C414.338 373.436 414.233 373.469 414.125 373.469Z" fill="#494949"/>
<path d="M449.446 363.64C455.835 358.58 455.456 347.45 448.597 338.782C441.739 330.113 431 327.188 424.61 332.248C418.221 337.308 418.6 348.438 425.458 357.107C432.316 365.776 443.056 368.701 449.446 363.64Z" fill="#0CBC8B"/>
<path d="M404.572 378.131C404.455 378.131 404.342 378.092 404.25 378.02C404.159 377.947 404.094 377.846 404.067 377.732L388.578 312.935C388.472 312.493 388.247 312.089 387.926 311.768C387.606 311.446 387.203 311.219 386.762 311.111C386.321 311.004 385.859 311.02 385.426 311.159C384.994 311.297 384.608 311.552 384.311 311.895L379.536 317.416C379.492 317.467 379.437 317.51 379.376 317.54C379.315 317.571 379.249 317.589 379.181 317.594C379.113 317.599 379.044 317.59 378.98 317.569C378.915 317.547 378.855 317.513 378.803 317.469C378.752 317.424 378.709 317.37 378.679 317.308C378.648 317.247 378.63 317.181 378.625 317.113C378.62 317.045 378.628 316.976 378.65 316.911C378.671 316.847 378.706 316.787 378.75 316.735L383.525 311.215C383.948 310.727 384.496 310.366 385.11 310.17C385.725 309.974 386.381 309.951 387.008 310.104C387.634 310.257 388.206 310.58 388.661 311.037C389.116 311.494 389.436 312.068 389.587 312.695L405.076 377.493C405.108 377.627 405.085 377.768 405.013 377.885C404.941 378.003 404.825 378.087 404.691 378.119C404.652 378.128 404.612 378.132 404.572 378.131V378.131Z" fill="#494949"/>
<path d="M398.859 331.81C400.742 320.916 395.759 310.958 387.729 309.569C379.699 308.18 371.663 315.885 369.78 326.779C367.897 337.673 372.881 347.631 380.911 349.02C388.94 350.409 396.976 342.704 398.859 331.81Z" fill="#0CBC8B"/>
<path d="M408.766 379.825C408.745 379.825 408.723 379.824 408.702 379.821C408.565 379.804 408.441 379.734 408.356 379.625C408.271 379.517 408.233 379.379 408.249 379.242L418.141 298.894C418.248 298.018 418.606 297.192 419.172 296.515C419.737 295.838 420.486 295.339 421.329 295.078C422.171 294.818 423.071 294.806 423.92 295.044C424.769 295.283 425.53 295.762 426.114 296.424L437.419 309.235C437.51 309.338 437.557 309.473 437.548 309.611C437.539 309.749 437.477 309.877 437.373 309.969C437.27 310.06 437.134 310.106 436.997 310.098C436.859 310.089 436.731 310.026 436.64 309.923L425.334 297.111C424.883 296.6 424.294 296.23 423.638 296.045C422.982 295.861 422.286 295.87 421.635 296.072C420.984 296.274 420.405 296.66 419.968 297.184C419.531 297.707 419.255 298.346 419.172 299.023L409.279 379.369C409.264 379.494 409.203 379.61 409.109 379.694C409.014 379.778 408.893 379.824 408.766 379.825Z" fill="#494949"/>
<path d="M449.012 316.353C452.956 309.219 448.315 299.097 438.646 293.745C428.977 288.394 417.94 289.84 413.996 296.974C410.052 304.109 414.693 314.231 424.362 319.582C434.031 324.933 445.067 323.488 449.012 316.353Z" fill="#0CBC8B"/>
<path opacity="0.2" d="M449.446 363.64C455.835 358.58 455.456 347.45 448.597 338.782C441.739 330.113 431 327.188 424.61 332.248C418.221 337.308 418.6 348.438 425.458 357.107C432.316 365.776 443.056 368.701 449.446 363.64Z" fill="white"/>
<path opacity="0.5" d="M398.859 331.81C400.742 320.916 395.759 310.958 387.729 309.569C379.699 308.18 371.663 315.885 369.78 326.779C367.897 337.673 372.881 347.631 380.911 349.02C388.94 350.409 396.976 342.704 398.859 331.81Z" fill="white"/>
<path opacity="0.5" d="M449.012 316.353C452.956 309.219 448.315 299.097 438.646 293.745C428.977 288.394 417.94 289.84 413.996 296.974C410.052 304.109 414.693 314.231 424.362 319.582C434.031 324.933 445.067 323.488 449.012 316.353Z" fill="white"/>
<path d="M421.416 448H396.114L391.922 367.004H425.609L421.416 448Z" fill="#292A2E"/>
<path opacity="0.3" d="M421.416 448H396.114L391.922 367.004H425.609L421.416 448Z" fill="white"/>
<path d="M449.446 363.897C449.407 363.897 449.368 363.889 449.332 363.872C449.297 363.855 449.266 363.83 449.242 363.799L424.405 332.406C424.363 332.352 424.343 332.283 424.351 332.215C424.359 332.146 424.394 332.084 424.448 332.041C424.502 331.998 424.571 331.979 424.639 331.987C424.707 331.995 424.77 332.029 424.813 332.083L449.649 363.476C449.679 363.514 449.698 363.56 449.704 363.608C449.709 363.657 449.701 363.706 449.68 363.75C449.658 363.794 449.625 363.831 449.584 363.857C449.542 363.883 449.495 363.897 449.446 363.897Z" fill="white"/>
<path d="M447.36 318.869C447.305 318.868 447.251 318.85 447.207 318.817L415.426 295.6C415.398 295.58 415.375 295.555 415.357 295.526C415.339 295.496 415.328 295.464 415.322 295.43C415.317 295.396 415.318 295.362 415.326 295.329C415.335 295.296 415.349 295.264 415.369 295.237C415.389 295.209 415.415 295.186 415.444 295.168C415.473 295.15 415.505 295.138 415.539 295.133C415.573 295.128 415.607 295.129 415.64 295.137C415.674 295.146 415.705 295.16 415.732 295.18L447.513 318.399C447.557 318.431 447.589 318.477 447.605 318.528C447.622 318.58 447.621 318.636 447.604 318.688C447.588 318.739 447.555 318.784 447.511 318.816C447.467 318.848 447.414 318.866 447.36 318.866V318.869Z" fill="white"/>
<path d="M379.619 348.681C379.596 348.682 379.574 348.679 379.552 348.673C379.485 348.655 379.429 348.611 379.394 348.552C379.36 348.492 379.35 348.421 379.368 348.354L389.485 310.429C389.494 310.396 389.509 310.364 389.529 310.337C389.55 310.309 389.576 310.286 389.606 310.268C389.635 310.251 389.668 310.239 389.702 310.235C389.736 310.23 389.771 310.232 389.805 310.241C389.838 310.25 389.869 310.265 389.896 310.286C389.924 310.307 389.946 310.334 389.963 310.364C389.98 310.394 389.991 310.427 389.995 310.461C390 310.495 389.997 310.53 389.987 310.563L379.87 348.489C379.856 348.544 379.823 348.593 379.777 348.628C379.732 348.663 379.676 348.682 379.619 348.681Z" fill="white"/>
</g>
<defs>
<clipPath id="clip0_9_162">
<rect width="461.015" height="448" fill="white"/>
</clipPath>
</defs>
</svg>
